# xmcd
#
# Track frame offsets:
#	150
#	12348
#	26898
#	37950
#	52113
#	67470
#	81090
#	93943
#	105725
#	125338
#	138290
#	148378
#	160078
#	169538
#	183560
#
# Disc length: 2654 seconds
#
# Revision: 1
# Processed by: cddbd v1.5.1PL0 Copyright (c) Steve Scherf et al.
# Submitted via: audiograbber 1.83.01
#
DISCID=d40a5c0f
DTITLE=BOXCAR WILLIE - Tear Jerkin' Heart Breakin' Hillbilly Songs
DYEAR=1900
DGENRE=Country
TTITLE0=How's that for leavin'
TTITLE1=Only on my mind
TTITLE2=Lonesome old town
TTITLE3=Long black vail around her heart
TTITLE4=Forty-nine nights
TTITLE5=Why do you want me
TTITLE6=Long black limousine
TTITLE7=I don't feel like doing anything
TTITLE8=Danny boy
TTITLE9=Reflections of an old man
TTITLE10=Cody, Wyoming
TTITLE11=Nothing left but memories
TTITLE12=Long, long train
TTITLE13=If I didn't love you
TTITLE14=Old King Cole
EXTD=
EXTT0=
EXTT1=
EXTT2=
EXTT3=
EXTT4=
EXTT5=
EXTT6=
EXTT7=
EXTT8=
EXTT9=
EXTT10=
EXTT11=
EXTT12=
EXTT13=
EXTT14=
PLAYORDER=
